<?xml version="1.0" standalone="no"?>
<!DOCTYPE svg PUBLIC "-//W3C//DTD SVG 20010904//EN"
 "http://www.w3.org/TR/2001/REC-SVG-20010904/DTD/svg10.dtd">
<svg version="1.0" xmlns="http://www.w3.org/2000/svg"
 width="1036.000000pt" height="1054.000000pt" viewBox="0 0 1036.000000 1054.000000"
 preserveAspectRatio="xMidYMid meet">

<g transform="translate(0.000000,1054.000000) scale(0.100000,-0.100000)"
fill="#000000" stroke="none">
<path d="M4782 8080 c-33 -22 -65 -47 -72 -55 -7 -8 -17 -15 -22 -15 -5 0 -42
-24 -81 -54 -40 -29 -99 -72 -132 -95 -72 -50 -210 -148 -303 -214 -37 -26
-114 -79 -171 -118 -57 -39 -185 -129 -285 -201 -100 -71 -188 -133 -196 -139
-8 -5 -83 -58 -167 -117 -465 -328 -703 -496 -808 -567 -44 -30 -93 -66 -110
-80 l-30 -25 31 -27 c17 -16 62 -48 99 -73 37 -25 79 -54 93 -66 76 -60 315
-214 332 -214 26 0 30 10 96 207 30 92 62 174 69 182 16 17 24 5 122 -181 43
-83 72 -128 82 -128 23 1 39 14 197 170 78 77 150 140 158 140 9 0 16 -1 16
-3 0 -2 -11 -68 -24 -148 -34 -203 -38 -249 -27 -249 6 0 55 16 108 36 54 20
136 50 183 66 47 17 99 37 117 44 37 16 53 18 53 4 0 -5 -56 -79 -125 -165
-140 -175 -153 -194 -135 -205 12 -7 257 -30 327 -30 48 0 103 -10 103 -19 0
-7 -35 -26 -210 -118 -133 -70 -147 -79 -138 -89 8 -8 307 44 337 59 17 9 31
31 46 77 100 294 280 494 542 599 54 22 137 51 185 65 118 34 203 78 261 134
75 73 92 111 92 212 0 79 -3 90 -39 159 -21 41 -68 115 -106 165 -178 240
-175 334 18 517 55 53 113 102 129 110 58 31 93 54 93 64 0 6 -49 42 -108 81
-321 214 -522 344 -530 344 -6 0 -37 -18 -70 -40z m-506 -642 c38 -41 145
-174 169 -212 16 -25 17 -29 3 -43 -9 -8 -21 -12 -27 -9 -12 8 -177 255 -187
280 -10 26 10 18 42 -16z m644 -218 c0 -12 -46 -32 -193 -81 -66 -21 -123 -36
-128 -33 -5 3 -9 14 -9 24 0 21 28 31 205 76 103 25 125 28 125 14z m-376 -61
c31 -25 35 -72 8 -107 -15 -19 -26 -23 -57 -20 -49 4 -71 36 -61 89 10 55 64
74 110 38z m46 -209 c12 -69 46 -319 57 -407 l6 -53 -60 0 c-33 0 -95 -3 -138
-7 l-78 -6 6 92 c4 59 11 99 20 110 8 9 18 30 22 46 14 51 18 2 6 -75 -6 -38
-11 -81 -11 -95 l0 -26 92 3 93 3 -3 40 c-2 22 -17 128 -32 235 -20 138 -25
199 -17 208 16 20 25 3 37 -68z m-105 51 c6 -10 -43 -170 -69 -226 -8 -16 -21
-46 -29 -65 -14 -32 -16 -33 -16 -10 0 14 6 53 14 88 13 53 23 90 60 210 5 14
31 16 40 3z"/>
<path d="M5641 7613 c-54 -108 -58 -230 -10 -329 38 -78 139 -170 273 -249
173 -102 198 -143 157 -260 -36 -103 -150 -231 -394 -444 -176 -154 -228 -235
-235 -369 -7 -123 27 -198 148 -327 31 -33 78 -93 105 -133 26 -40 53 -76 59
-80 6 -3 31 -9 56 -13 25 -4 95 -14 155 -23 116 -18 164 -25 335 -50 58 -8
132 -20 165 -26 86 -15 175 -29 290 -45 94 -13 224 -33 460 -71 55 -8 129 -20
165 -26 36 -5 88 -13 115 -18 28 -5 84 -13 125 -19 41 -6 95 -15 120 -21 52
-11 241 -33 244 -28 2 2 10 77 20 168 27 270 42 343 58 298 5 -13 -26 -345
-36 -400 -3 -15 -1 -30 4 -33 16 -10 150 -9 160 1 6 6 6 22 0 44 -6 19 -10 57
-9 85 l1 50 19 -43 c11 -24 23 -74 26 -113 l6 -69 -47 0 c-48 0 -62 -14 -23
-23 12 -3 72 -13 132 -22 127 -18 501 -78 625 -100 47 -8 121 -19 165 -25 44
-6 114 -17 155 -25 41 -8 136 -23 210 -34 167 -25 365 -56 489 -77 51 -8 96
-13 99 -10 6 6 -25 39 -43 47 -9 3 -248 159 -297 192 -30 21 -361 243 -438
294 -41 27 -156 103 -255 170 -454 303 -670 446 -680 450 -7 2 -35 -33 -64
-79 -73 -117 -84 -130 -104 -122 -9 3 -17 11 -17 18 1 6 34 53 75 104 41 52
73 98 70 103 -5 7 -838 565 -887 594 -10 5 -111 73 -225 149 -168 112 -752
500 -815 541 -30 20 -106 70 -268 179 -345 230 -385 256 -402 256 -10 0 -26
-16 -37 -37z m786 -1004 c7 -7 -8 -46 -54 -132 -35 -67 -74 -143 -86 -170 -14
-30 -28 -46 -37 -45 -21 4 -25 46 -7 66 8 9 26 38 39 64 125 251 120 242 145
217z m-67 -13 c0 -5 -121 -239 -127 -245 -2 -3 -8 0 -15 7 -15 15 -22 168 -8
177 17 11 24 -3 11 -19 -7 -8 -11 -23 -8 -33 3 -13 10 -5 24 28 16 35 31 51
64 67 44 21 59 26 59 18z m223 -72 c163 -97 187 -113 187 -125 0 -7 -14 -40
-32 -76 l-31 -64 22 -23 c13 -14 19 -29 15 -39 -7 -20 -6 -20 -38 -7 -24 9
-29 6 -56 -38 -17 -26 -33 -57 -36 -70 -7 -27 -27 -23 -89 16 -22 14 -49 31
-60 37 -84 46 -185 108 -185 114 0 4 4 11 10 17 5 5 36 61 68 124 32 63 69
134 81 158 12 23 24 42 26 42 3 0 56 -30 118 -66z m277 -201 c-1 -18 -148
-287 -159 -291 -19 -6 -12 22 24 94 19 38 35 75 35 82 0 6 4 12 9 12 5 0 14
14 21 30 22 52 71 104 70 73z m150 -94 c0 -11 -19 -51 -29 -59 -4 -3 -19 -31
-34 -63 -15 -31 -43 -83 -62 -114 -26 -43 -36 -53 -41 -40 -3 10 5 35 20 61
14 25 26 49 26 54 0 6 -17 21 -37 34 -20 13 -41 26 -45 29 -12 8 1 39 17 39 7
0 26 -7 41 -15 46 -24 60 -18 93 35 29 47 51 64 51 39z m135 -115 c92 -55 113
-64 128 -54 31 19 30 6 -3 -55 -17 -32 -28 -61 -23 -65 4 -4 49 0 98 11 50 10
99 18 110 18 38 -1 -42 -28 -125 -43 -45 -8 -84 -17 -88 -21 -4 -3 11 -56 32
-116 21 -61 36 -113 33 -116 -8 -7 -30 42 -58 129 -13 43 -28 78 -34 78 -5 0
-23 -25 -39 -55 -16 -30 -32 -55 -37 -55 -17 0 -9 39 16 84 36 65 30 81 -6 18
l-31 -52 -31 18 c-18 11 -65 39 -105 62 -41 24 -76 49 -79 56 -2 7 14 47 38
91 63 118 72 133 84 133 5 0 60 -30 120 -66z m740 -414 c66 -16 121 -30 123
-30 1 0 2 -9 2 -20 0 -22 -17 -25 -64 -10 -157 50 -222 73 -230 81 -18 17 48
9 169 -21z m251 -23 c23 -20 26 -28 20 -60 -8 -42 -35 -62 -72 -53 -54 14 -67
89 -21 121 29 20 41 19 73 -8z m44 -239 c36 -114 51 -178 40 -178 -5 0 -26 49
-101 238 -13 33 -11 42 10 42 15 0 25 -21 51 -102z"/>
<path d="M7227 6019 c-4 -16 -3 -18 9 -8 16 13 19 29 5 29 -5 0 -11 -9 -14
-21z"/>
<path d="M7190 5939 c0 -5 5 -7 10 -4 6 3 10 8 10 11 0 2 -4 4 -10 4 -5 0 -10
-5 -10 -11z"/>
<path d="M2249 6295 c-52 -36 -125 -87 -164 -115 -38 -27 -97 -69 -130 -92
-34 -24 -143 -101 -244 -173 -101 -71 -215 -152 -255 -179 -39 -26 -87 -61
-106 -75 -19 -15 -71 -52 -115 -83 -85 -58 -275 -192 -384 -271 -116 -83 -128
-91 -187 -132 -141 -96 -419 -298 -423 -307 -4 -11 82 -4 149 12 19 4 80 16
135 25 262 44 488 86 520 95 17 4 77 16 135 25 58 9 163 28 234 42 72 13 168
30 215 38 48 8 111 19 141 25 86 17 144 28 300 56 216 39 237 52 103 63 -57 4
-78 10 -78 20 0 8 70 50 160 97 88 46 175 92 194 102 45 24 62 49 41 62 -64
39 -280 206 -280 217 0 18 18 20 248 34 144 9 205 16 209 25 7 19 -92 200
-222 404 -12 19 -37 61 -56 93 -18 31 -36 57 -40 57 -3 0 -49 -29 -100 -65z"/>
<path d="M3203 5984 c-131 -19 -208 -48 -313 -118 -177 -118 -290 -301 -290
-470 0 -90 16 -108 89 -96 29 5 56 12 59 14 3 3 5 50 6 103 1 86 4 105 29 156
35 70 119 164 188 208 121 78 307 111 420 74 154 -49 225 -151 217 -307 -5
-89 -8 -87 86 -65 45 11 51 15 59 47 15 56 1 163 -29 230 -42 94 -152 185
-254 212 -67 18 -189 23 -267 12z"/>
<path d="M6816 4886 c-20 -24 -36 -52 -36 -60 0 -9 12 -35 26 -58 39 -62 80
-158 93 -219 l12 -54 -82 -77 c-95 -89 -96 -76 18 -170 63 -51 73 -64 73 -91
0 -46 -32 -151 -74 -241 -20 -43 -36 -84 -36 -90 0 -15 82 -96 97 -96 28 0
105 162 133 278 6 28 15 54 19 56 3 2 78 -56 166 -129 88 -73 165 -131 171
-128 12 4 54 87 54 107 0 8 -26 36 -57 62 -32 27 -79 67 -104 89 -25 22 -82
71 -127 109 l-82 68 0 102 0 102 108 95 c59 51 109 96 112 99 3 3 38 34 78 69
l72 63 -27 50 c-15 28 -33 53 -40 55 -17 7 -45 -12 -130 -89 -159 -143 -205
-180 -212 -172 -4 5 -13 27 -20 49 -21 63 -79 186 -108 228 -14 20 -34 37 -43
37 -10 0 -34 -20 -54 -44z"/>
<path d="M8264 4659 c-3 -6 -3 -141 1 -300 7 -284 8 -289 29 -295 24 -6 144 1
152 9 7 7 5 375 -2 404 -11 41 19 26 49 -25 31 -53 240 -359 257 -376 11 -11
290 -10 302 2 4 4 4 138 0 297 l-7 290 -90 0 -90 0 3 -215 3 -215 -30 35 c-17
19 -31 38 -31 42 0 5 -223 334 -236 347 -9 10 -304 9 -310 0z"/>
<path d="M9266 4458 c-164 -339 -176 -364 -176 -377 0 -7 31 -11 100 -11 l99
0 23 50 23 50 172 0 c95 0 176 1 181 2 4 1 20 -22 35 -50 l28 -52 100 0 c60 0
99 4 99 10 0 9 -98 202 -241 475 l-58 110 -141 3 -141 3 -103 -213z m308 -34
c26 -53 45 -99 42 -101 -2 -2 -47 -6 -100 -9 -73 -3 -98 -1 -101 9 -3 7 8 41
25 75 16 34 30 66 30 70 0 15 31 52 44 52 7 0 34 -43 60 -96z"/>
<path d="M7682 4647 c-11 -12 -43 -78 -213 -436 -32 -67 -59 -129 -59 -137 0
-12 18 -14 97 -12 l98 3 22 48 23 47 179 0 179 0 25 -47 25 -48 97 0 c53 -1
98 2 101 6 3 6 -133 286 -146 299 -3 3 -37 68 -76 145 l-71 140 -135 3 c-104
2 -138 -1 -146 -11z m201 -230 c26 -52 47 -98 47 -103 0 -5 -46 -9 -102 -8
-95 0 -103 2 -100 19 7 38 81 185 94 185 7 0 34 -42 61 -93z"/>
<path d="M5975 4641 c-77 -7 -125 -32 -149 -79 -32 -63 -26 -384 8 -450 9 -18
34 -41 56 -52 36 -18 59 -20 278 -20 266 0 317 8 366 59 35 37 49 130 41 286
-8 150 -12 170 -42 206 -46 54 -71 59 -290 57 -109 -1 -230 -4 -268 -7z m398
-182 c14 -17 17 -41 17 -119 0 -135 3 -132 -194 -138 l-155 -4 -25 25 c-24 24
-26 32 -26 120 0 122 6 130 102 139 40 3 116 4 168 2 81 -4 98 -7 113 -25z"/>
<path d="M5186 4621 c-43 -5 -50 -10 -70 -46 -57 -102 -276 -534 -276 -544 0
-8 16 -11 48 -9 45 3 48 5 72 49 44 82 27 77 263 78 l212 1 17 -38 c28 -61 53
-82 98 -82 51 0 51 9 2 97 -22 37 -65 115 -97 173 -195 354 -177 333 -269 321z
m95 -192 c32 -57 67 -121 79 -143 18 -31 19 -40 8 -47 -16 -11 -318 -12 -318
-1 0 4 18 43 41 87 22 44 56 111 75 148 19 38 40 67 46 65 6 -2 37 -51 69
-109z"/>
<path d="M4724 4606 c-4 -11 1 -551 6 -584 0 -2 19 -2 43 0 l42 3 0 175 c0 96
-2 229 -5 295 l-5 120 -38 3 c-26 2 -39 -1 -43 -12z"/>
<path d="M3925 4603 c-16 -2 -136 -4 -265 -5 l-235 -3 0 -288 c0 -159 3 -293
6 -299 9 -14 529 -11 546 4 8 6 13 25 11 42 l-3 31 -232 -4 c-133 -2 -233 0
-233 5 0 5 -1 47 -3 94 l-2 85 214 3 c143 2 219 6 228 14 8 6 13 25 11 42 l-3
31 -225 0 -225 0 -3 78 c-2 42 -2 78 0 79 2 1 107 4 233 7 l230 6 3 31 c4 36
-12 50 -53 47z"/>
<path d="M4025 4600 c-11 -17 -5 -561 6 -581 11 -22 63 -26 75 -7 4 7 7 58 6
114 l-1 101 172 7 c274 11 287 5 287 -124 0 -83 9 -100 50 -100 49 0 52 9 46
120 -4 57 -9 106 -14 109 -32 25 -34 41 -7 73 26 31 27 36 23 123 -4 102 -19
134 -73 159 -28 13 -77 16 -298 16 -167 0 -268 -4 -272 -10z m505 -80 c34 -14
40 -28 43 -99 2 -41 -2 -55 -21 -73 -22 -22 -27 -23 -230 -23 l-207 0 -3 89
c-2 49 -1 94 1 100 7 16 380 21 417 6z"/>
<path d="M3274 4586 c-12 -9 -13 -54 -7 -301 l8 -290 43 -3 42 -3 0 299 -1
300 -35 4 c-20 2 -42 -1 -50 -6z"/>
<path d="M3109 4583 c-1 -4 0 -117 1 -250 1 -134 0 -243 -3 -243 -3 0 -115
110 -248 245 l-243 245 -69 0 -69 0 2 -282 c2 -156 5 -291 7 -300 6 -23 78
-26 86 -4 3 8 3 121 0 250 -3 148 -1 236 4 236 6 0 117 -110 248 -245 l239
-245 68 0 68 0 -2 298 -3 297 -42 3 c-24 2 -44 0 -44 -5z"/>
<path d="M2020 4571 l-135 -6 4 -290 c2 -159 6 -294 8 -298 5 -8 354 -7 486 1
l67 4 0 40 0 41 -222 -5 c-123 -3 -229 -3 -235 -1 -9 3 -13 31 -13 92 l0 88
158 6 c86 4 188 7 225 7 l68 0 -3 38 -3 37 -222 3 -223 2 -1 58 c0 31 -2 65
-4 75 -2 10 2 20 8 22 7 3 111 6 232 9 l220 4 0 39 0 38 -140 1 c-77 0 -201
-2 -275 -5z"/>
<path d="M1345 4560 c-122 -11 -151 -24 -182 -85 -21 -39 -29 -224 -14 -338
12 -98 33 -136 86 -155 46 -17 247 -24 378 -13 187 16 214 41 218 206 l3 100
-180 0 c-98 0 -185 -2 -191 -4 -7 -2 -13 -18 -13 -37 0 -44 18 -48 171 -39
l119 7 0 -49 c0 -63 -15 -83 -71 -94 -76 -14 -356 -11 -387 5 -43 22 -56 84
-49 234 9 179 2 173 229 180 246 7 254 4 272 -80 6 -25 11 -28 46 -28 21 0 42
5 45 10 4 6 1 35 -5 65 -16 75 -51 102 -151 115 -81 10 -201 10 -324 0z"/>
<path d="M994 4545 c-3 -8 -4 -120 -2 -250 2 -154 0 -235 -7 -233 -5 2 -115
112 -244 246 l-234 243 -66 -3 -66 -3 0 -295 0 -295 45 0 45 0 -3 248 c-2 136
-1 247 3 247 6 0 213 -211 441 -447 48 -50 53 -53 101 -53 90 0 84 -16 81 234
-1 121 -4 256 -6 299 l-4 77 -39 0 c-26 0 -42 -5 -45 -15z"/>
<path d="M220 4535 c-10 -12 -12 -51 -7 -178 4 -89 7 -217 7 -284 l0 -123 46
0 46 0 -4 298 -4 297 -35 3 c-23 2 -40 -3 -49 -13z"/>
<path d="M8130 3635 c0 -18 5 -25 20 -25 25 0 38 29 19 41 -25 15 -39 10 -39
-16z"/>
<path d="M4317 3590 c-18 -22 -22 -40 -8 -40 9 0 61 46 61 55 0 13 -37 3 -53
-15z"/>
<path d="M2803 3583 c-27 -5 -30 -21 -5 -30 28 -11 32 -24 32 -130 l0 -101
-31 -11 c-45 -16 -36 -46 14 -45 20 1 57 2 82 3 51 1 63 25 21 41 -32 12 -40
53 -33 164 2 46 2 89 -2 94 -8 13 -49 21 -78 15z"/>
<path d="M9552 3547 c-28 -29 -32 -39 -32 -89 0 -50 4 -60 32 -88 30 -30 35
-32 82 -25 84 11 92 41 10 36 -52 -2 -74 11 -74 45 0 23 4 24 59 24 67 0 87
15 77 56 -9 35 -29 53 -68 65 -48 13 -51 12 -86 -24z m93 -42 c0 -16 -8 -21
-37 -23 -40 -3 -50 12 -26 36 20 20 63 11 63 -13z"/>
<path d="M7618 3554 c-32 -17 -45 -53 -29 -82 5 -10 33 -29 61 -41 27 -12 50
-25 50 -29 -1 -23 -20 -33 -61 -30 -34 2 -44 0 -47 -14 -2 -12 6 -19 32 -23
47 -9 89 1 115 29 39 41 8 94 -64 112 -56 14 -40 54 23 54 21 0 32 5 32 14 0
29 -67 35 -112 10z"/>
<path d="M8093 3563 c-22 -8 -14 -31 12 -37 23 -6 25 -10 25 -70 0 -60 -2 -64
-25 -70 -16 -4 -25 -13 -25 -27 0 -18 5 -20 77 -17 65 3 78 6 81 21 2 10 -3
17 -11 17 -27 0 -42 32 -43 97 -1 35 -8 70 -14 78 -12 15 -52 19 -77 8z"/>
<path d="M8562 3553 c-9 -15 1 -199 10 -209 4 -4 15 -1 24 7 13 10 15 27 12
76 -4 56 -1 66 19 85 l23 22 30 -22 c53 -40 79 -20 44 33 -15 23 -22 24 -86
22 -41 -1 -72 -7 -76 -14z"/>
<path d="M9016 3562 c-2 -4 1 -21 9 -37 7 -17 23 -57 36 -90 28 -75 36 -85 64
-85 25 0 55 38 55 69 0 11 4 22 8 25 12 7 37 115 28 123 -14 14 -40 -14 -52
-58 -8 -25 -22 -53 -32 -62 -18 -16 -20 -14 -47 53 -20 50 -33 70 -46 70 -10
0 -20 -4 -23 -8z"/>
<path d="M6644 3526 c-35 -35 -36 -39 -32 -93 6 -73 37 -103 104 -103 49 0 88
15 79 31 -4 5 -28 9 -54 9 -36 0 -53 5 -67 21 -27 30 -7 40 84 43 24 1 42 21
42 48 0 29 -43 68 -82 75 -33 5 -41 2 -74 -31z m100 -28 c3 -13 2 -26 -2 -30
-12 -12 -72 2 -72 16 0 38 64 50 74 14z"/>
<path d="M5698 3535 c-40 -22 -64 -94 -49 -145 13 -45 56 -84 83 -76 63 20 61
20 55 -3 -7 -29 8 -71 27 -71 20 0 23 28 21 170 l-2 125 -29 6 c-48 11 -78 9
-106 -6z m84 -90 c-6 -82 -56 -114 -86 -54 -17 34 -13 53 18 87 13 15 29 22
46 20 24 -3 25 -6 22 -53z"/>
<path d="M6143 3542 c-15 -9 -5 -176 13 -200 10 -14 26 -17 80 -15 36 1 68 4
69 5 6 6 13 192 8 205 -6 16 -29 17 -39 2 -4 -7 -6 -35 -5 -64 1 -39 -4 -58
-20 -78 -42 -55 -69 -21 -69 89 0 64 -7 75 -37 56z"/>
<path d="M4752 3533 c-12 -3 -27 -13 -32 -24 -10 -17 -7 -19 33 -19 23 0 48
-5 54 -11 19 -19 3 -39 -32 -39 -43 0 -85 -34 -85 -69 0 -45 22 -65 71 -65 61
1 92 6 107 17 25 19 9 170 -21 195 -15 13 -64 20 -95 15z m68 -159 c0 -8 -12
-19 -26 -24 -32 -13 -54 2 -47 30 9 34 73 29 73 -6z"/>
<path d="M400 3520 c-40 -4 -55 -9 -55 -20 0 -10 12 -16 32 -18 38 -4 46 -22
42 -90 -1 -26 -2 -71 -1 -99 2 -45 5 -53 21 -53 25 0 29 17 26 120 -3 107 0
120 29 120 30 0 53 25 34 36 -15 10 -52 11 -128 4z"/>
<path d="M4242 3518 c-19 -19 -14 -36 11 -40 20 -3 22 -8 22 -68 0 -60 -2 -64
-25 -70 -34 -8 -38 -37 -7 -45 25 -7 136 0 144 9 11 11 -7 36 -27 36 -21 0
-24 14 -21 110 1 25 -2 50 -6 56 -12 17 -77 26 -91 12z"/>
<path d="M3755 3488 c-24 -29 -26 -37 -24 -117 1 -47 -2 -98 -6 -113 -6 -24
-3 -30 27 -48 42 -25 94 -26 133 0 72 47 46 104 -53 119 -60 8 -65 27 -8 35
52 8 62 18 74 71 5 22 13 47 16 56 6 13 -1 18 -31 22 -77 13 -100 9 -128 -25z
m90 -48 c0 -32 -2 -35 -30 -35 -23 0 -31 5 -33 21 -4 26 24 56 47 52 11 -2 16
-14 16 -38z m19 -169 c17 -19 17 -20 -3 -30 -51 -28 -110 -1 -75 34 21 21 57
19 78 -4z"/>
<path d="M3283 3489 c-33 -21 -37 -28 -48 -91 -10 -60 37 -128 88 -128 87 0
142 107 97 188 -16 29 -31 42 -53 46 -43 9 -49 8 -84 -15z m78 -32 c20 -16 32
-62 24 -98 -7 -32 -47 -49 -74 -32 -35 22 -32 102 6 131 20 15 24 15 44 -1z"/>
<path d="M2320 3477 c-33 -16 -50 -52 -50 -105 0 -90 60 -139 133 -108 44 18
67 60 67 121 0 83 -76 130 -150 92z m83 -50 c27 -19 26 -86 -2 -109 -33 -26
-57 -23 -71 12 -13 30 -7 74 12 97 13 16 39 16 61 0z"/>
<path d="M1392 3467 c-59 -18 -90 -82 -72 -147 17 -63 88 -98 141 -70 36 20
23 40 -26 40 -50 0 -65 16 -65 69 0 36 40 71 81 71 36 0 41 34 7 44 -27 7 -23
7 -66 -7z"/>
<path d="M1804 3471 c-2 -2 -4 -51 -4 -108 0 -84 3 -105 15 -110 24 -9 30 3
32 73 3 81 15 106 51 102 26 -3 27 -5 30 -81 3 -80 16 -103 45 -78 17 13 3
155 -19 188 -12 20 -22 22 -80 20 -36 -1 -67 -4 -70 -6z"/>
<path d="M884 3459 c-33 -17 -54 -62 -54 -116 1 -52 10 -70 52 -97 26 -17 49
-17 111 0 28 8 11 21 -37 28 -51 8 -90 41 -66 56 8 6 31 10 50 11 48 3 53 4
66 12 27 16 -10 107 -44 107 -9 0 -26 2 -37 5 -11 2 -29 -1 -41 -6z m65 -39
c5 0 8 -10 7 -22 -1 -24 -32 -35 -62 -24 -13 5 -12 9 2 31 10 15 23 24 31 21
8 -4 18 -6 22 -6z"/>
</g>
</svg>
