<?xml version="1.0" encoding="UTF-8"?>
<svg xmlns="http://www.w3.org/2000/svg" xmlns:xlink="http://www.w3.org/1999/xlink" width="109px" height="111px" viewBox="0 0 109 110" version="1.1">
<g id="surface1">
<path style=" stroke:none;fill-rule:nonzero;fill:rgb(0%,0%,0%);fill-opacity:1;" d="M 50.3125 25.683594 C 49.964844 25.910156 49.628906 26.171875 49.554688 26.257812 C 49.480469 26.339844 49.375 26.414062 49.324219 26.414062 C 49.269531 26.414062 48.882812 26.664062 48.472656 26.976562 C 48.050781 27.277344 47.429688 27.726562 47.082031 27.964844 C 46.324219 28.488281 44.875 29.507812 43.894531 30.195312 C 43.503906 30.46875 42.695312 31.019531 42.09375 31.425781 C 41.496094 31.832031 40.148438 32.773438 39.097656 33.523438 C 38.042969 34.261719 37.117188 34.910156 37.035156 34.972656 C 36.949219 35.023438 36.160156 35.578125 35.277344 36.191406 C 30.386719 39.609375 27.882812 41.363281 26.777344 42.101562 C 26.3125 42.414062 25.796875 42.792969 25.621094 42.9375 L 25.304688 43.199219 L 25.628906 43.480469 C 25.808594 43.644531 26.28125 43.980469 26.671875 44.242188 C 27.058594 44.5 27.503906 44.804688 27.648438 44.929688 C 28.449219 45.554688 30.964844 47.160156 31.144531 47.160156 C 31.417969 47.160156 31.457031 47.054688 32.152344 45 C 32.46875 44.042969 32.804688 43.1875 32.878906 43.105469 C 33.046875 42.925781 33.132812 43.050781 34.164062 44.992188 C 34.613281 45.855469 34.921875 46.324219 35.023438 46.324219 C 35.265625 46.316406 35.4375 46.179688 37.097656 44.554688 C 37.917969 43.75 38.675781 43.09375 38.761719 43.09375 C 38.855469 43.09375 38.929688 43.105469 38.929688 43.125 C 38.929688 43.144531 38.8125 43.835938 38.675781 44.667969 C 38.316406 46.785156 38.277344 47.265625 38.390625 47.265625 C 38.457031 47.265625 38.972656 47.097656 39.527344 46.890625 C 40.097656 46.679688 40.960938 46.367188 41.453125 46.199219 C 41.949219 46.023438 42.496094 45.816406 42.683594 45.742188 C 43.074219 45.574219 43.242188 45.554688 43.242188 45.699219 C 43.242188 45.753906 42.652344 46.523438 41.925781 47.421875 C 40.453125 49.246094 40.316406 49.441406 40.507812 49.558594 C 40.632812 49.628906 43.210938 49.871094 43.945312 49.871094 C 44.453125 49.871094 45.03125 49.976562 45.03125 50.070312 C 45.03125 50.140625 44.664062 50.339844 42.820312 51.300781 C 41.421875 52.027344 41.273438 52.121094 41.371094 52.226562 C 41.453125 52.308594 44.601562 51.769531 44.914062 51.613281 C 45.09375 51.519531 45.242188 51.289062 45.398438 50.808594 C 46.453125 47.742188 48.34375 45.660156 51.101562 44.5625 C 51.667969 44.335938 52.542969 44.03125 53.046875 43.886719 C 54.289062 43.53125 55.183594 43.074219 55.792969 42.488281 C 56.582031 41.726562 56.761719 41.332031 56.761719 40.277344 C 56.761719 39.457031 56.730469 39.339844 56.351562 38.621094 C 56.128906 38.195312 55.636719 37.421875 55.238281 36.902344 C 53.363281 34.398438 53.394531 33.417969 55.425781 31.511719 C 56.003906 30.957031 56.613281 30.449219 56.78125 30.363281 C 57.394531 30.039062 57.761719 29.800781 57.761719 29.695312 C 57.761719 29.632812 57.246094 29.257812 56.625 28.851562 C 53.246094 26.621094 51.132812 25.265625 51.046875 25.265625 C 50.984375 25.265625 50.660156 25.453125 50.3125 25.683594 Z M 44.988281 32.375 C 45.390625 32.804688 46.515625 34.191406 46.765625 34.585938 C 46.933594 34.847656 46.945312 34.890625 46.796875 35.035156 C 46.703125 35.117188 46.578125 35.160156 46.515625 35.128906 C 46.386719 35.042969 44.652344 32.46875 44.546875 32.210938 C 44.441406 31.9375 44.652344 32.019531 44.988281 32.375 Z M 51.765625 34.648438 C 51.765625 34.773438 51.28125 34.980469 49.734375 35.492188 C 49.039062 35.710938 48.441406 35.867188 48.386719 35.835938 C 48.335938 35.804688 48.292969 35.691406 48.292969 35.585938 C 48.292969 35.367188 48.585938 35.265625 50.449219 34.792969 C 51.535156 34.535156 51.765625 34.503906 51.765625 34.648438 Z M 47.808594 35.285156 C 48.132812 35.546875 48.175781 36.035156 47.890625 36.402344 C 47.734375 36.597656 47.617188 36.640625 47.292969 36.609375 C 46.777344 36.566406 46.546875 36.234375 46.652344 35.679688 C 46.757812 35.105469 47.324219 34.910156 47.808594 35.285156 Z M 48.292969 37.464844 C 48.417969 38.183594 48.777344 40.789062 48.890625 41.707031 L 48.957031 42.257812 L 48.324219 42.257812 C 47.976562 42.257812 47.324219 42.289062 46.871094 42.332031 L 46.050781 42.394531 L 46.113281 41.4375 C 46.15625 40.820312 46.230469 40.402344 46.324219 40.289062 C 46.410156 40.195312 46.515625 39.976562 46.554688 39.808594 C 46.703125 39.277344 46.746094 39.789062 46.621094 40.589844 C 46.554688 40.988281 46.503906 41.4375 46.503906 41.582031 L 46.503906 41.851562 L 47.472656 41.820312 L 48.449219 41.789062 L 48.417969 41.375 C 48.398438 41.144531 48.238281 40.039062 48.082031 38.921875 C 47.871094 37.484375 47.820312 36.847656 47.902344 36.753906 C 48.070312 36.546875 48.167969 36.722656 48.292969 37.464844 Z M 47.1875 36.933594 C 47.25 37.035156 46.734375 38.703125 46.460938 39.289062 C 46.378906 39.457031 46.242188 39.769531 46.15625 39.964844 C 46.007812 40.300781 45.988281 40.308594 45.988281 40.070312 C 45.988281 39.925781 46.050781 39.519531 46.136719 39.152344 C 46.273438 38.601562 46.378906 38.214844 46.765625 36.964844 C 46.820312 36.816406 47.09375 36.796875 47.1875 36.933594 Z M 47.1875 36.933594 "/>
<path style=" stroke:none;fill-rule:nonzero;fill:rgb(0%,0%,0%);fill-opacity:1;" d="M 59.351562 30.550781 C 58.78125 31.675781 58.742188 32.949219 59.246094 33.980469 C 59.644531 34.792969 60.707031 35.753906 62.117188 36.578125 C 63.9375 37.640625 64.199219 38.070312 63.769531 39.289062 C 63.390625 40.363281 62.191406 41.695312 59.625 43.917969 C 57.773438 45.523438 57.226562 46.367188 57.152344 47.765625 C 57.078125 49.046875 57.433594 49.828125 58.707031 51.175781 C 59.035156 51.519531 59.53125 52.144531 59.8125 52.558594 C 60.085938 52.976562 60.371094 53.351562 60.433594 53.394531 C 60.496094 53.425781 60.761719 53.488281 61.023438 53.53125 C 61.285156 53.570312 62.023438 53.675781 62.652344 53.769531 C 63.875 53.957031 64.378906 54.03125 66.179688 54.292969 C 66.789062 54.375 67.566406 54.5 67.914062 54.5625 C 68.820312 54.71875 69.753906 54.863281 70.964844 55.03125 C 71.953125 55.167969 73.324219 55.375 75.804688 55.769531 C 76.382812 55.855469 77.164062 55.980469 77.542969 56.042969 C 77.921875 56.09375 78.46875 56.179688 78.75 56.230469 C 79.046875 56.28125 79.636719 56.367188 80.066406 56.429688 C 80.496094 56.492188 81.066406 56.585938 81.328125 56.648438 C 81.875 56.761719 83.863281 56.992188 83.894531 56.9375 C 83.917969 56.917969 84 56.136719 84.105469 55.1875 C 84.390625 52.371094 84.546875 51.613281 84.714844 52.082031 C 84.769531 52.214844 84.441406 55.679688 84.339844 56.25 C 84.308594 56.40625 84.328125 56.5625 84.378906 56.59375 C 84.546875 56.699219 85.957031 56.6875 86.0625 56.585938 C 86.125 56.523438 86.125 56.355469 86.0625 56.125 C 86 55.929688 85.957031 55.53125 85.96875 55.238281 L 85.980469 54.71875 L 86.179688 55.167969 C 86.296875 55.417969 86.421875 55.9375 86.453125 56.34375 L 86.515625 57.0625 L 86.023438 57.0625 C 85.515625 57.0625 85.371094 57.210938 85.78125 57.304688 C 85.90625 57.335938 86.539062 57.441406 87.167969 57.535156 C 88.503906 57.722656 92.441406 58.347656 93.746094 58.574219 C 94.238281 58.660156 95.015625 58.773438 95.480469 58.835938 C 95.941406 58.898438 96.679688 59.015625 97.109375 59.097656 C 97.542969 59.179688 98.542969 59.335938 99.320312 59.453125 C 101.078125 59.710938 103.160156 60.035156 104.464844 60.253906 C 105 60.335938 105.476562 60.390625 105.507812 60.359375 C 105.570312 60.296875 105.242188 59.953125 105.054688 59.867188 C 104.960938 59.835938 102.445312 58.210938 101.929688 57.867188 C 101.613281 57.648438 98.132812 55.332031 97.320312 54.800781 C 96.890625 54.519531 95.679688 53.726562 94.636719 53.03125 C 89.863281 49.871094 87.589844 48.378906 87.484375 48.339844 C 87.410156 48.316406 87.117188 48.683594 86.8125 49.160156 C 86.042969 50.382812 85.925781 50.515625 85.714844 50.433594 C 85.621094 50.402344 85.539062 50.320312 85.539062 50.246094 C 85.546875 50.183594 85.894531 49.691406 86.328125 49.160156 C 86.757812 48.617188 87.09375 48.140625 87.0625 48.085938 C 87.011719 48.015625 78.246094 42.195312 77.730469 41.894531 C 77.625 41.84375 76.5625 41.132812 75.363281 40.339844 C 73.597656 39.171875 67.453125 35.128906 66.789062 34.699219 C 66.472656 34.492188 65.671875 33.972656 63.96875 32.835938 C 60.339844 30.4375 59.917969 30.164062 59.738281 30.164062 C 59.632812 30.164062 59.464844 30.332031 59.351562 30.550781 Z M 67.621094 41.019531 C 67.695312 41.09375 67.535156 41.5 67.050781 42.394531 C 66.683594 43.09375 66.273438 43.886719 66.148438 44.167969 C 66 44.480469 65.851562 44.648438 65.757812 44.636719 C 65.535156 44.59375 65.496094 44.15625 65.683594 43.949219 C 65.769531 43.855469 65.957031 43.550781 66.09375 43.28125 C 67.410156 40.664062 67.355469 40.757812 67.621094 41.019531 Z M 66.914062 41.15625 C 66.914062 41.207031 65.640625 43.644531 65.578125 43.707031 C 65.558594 43.738281 65.496094 43.707031 65.421875 43.636719 C 65.261719 43.480469 65.191406 41.882812 65.335938 41.789062 C 65.515625 41.675781 65.589844 41.820312 65.453125 41.988281 C 65.378906 42.070312 65.335938 42.226562 65.367188 42.332031 C 65.398438 42.46875 65.472656 42.386719 65.621094 42.039062 C 65.789062 41.675781 65.949219 41.507812 66.292969 41.34375 C 66.757812 41.125 66.914062 41.070312 66.914062 41.15625 Z M 69.261719 41.90625 C 70.976562 42.917969 71.230469 43.082031 71.230469 43.207031 C 71.230469 43.28125 71.082031 43.625 70.890625 44 L 70.566406 44.667969 L 70.796875 44.90625 C 70.933594 45.054688 70.996094 45.210938 70.957031 45.3125 C 70.882812 45.523438 70.890625 45.523438 70.554688 45.386719 C 70.300781 45.292969 70.25 45.324219 69.964844 45.785156 C 69.789062 46.054688 69.617188 46.378906 69.585938 46.511719 C 69.511719 46.796875 69.304688 46.753906 68.652344 46.347656 C 68.417969 46.199219 68.136719 46.023438 68.019531 45.960938 C 67.136719 45.480469 66.074219 44.835938 66.074219 44.773438 C 66.074219 44.730469 66.117188 44.65625 66.179688 44.59375 C 66.230469 44.542969 66.558594 43.960938 66.894531 43.300781 C 67.230469 42.644531 67.621094 41.90625 67.746094 41.65625 C 67.871094 41.414062 68 41.21875 68.019531 41.21875 C 68.050781 41.21875 68.609375 41.53125 69.261719 41.90625 Z M 72.175781 44 C 72.164062 44.1875 70.617188 46.992188 70.503906 47.035156 C 70.300781 47.097656 70.375 46.804688 70.753906 46.054688 C 70.957031 45.660156 71.125 45.273438 71.125 45.199219 C 71.125 45.136719 71.164062 45.074219 71.21875 45.074219 C 71.269531 45.074219 71.367188 44.929688 71.4375 44.761719 C 71.671875 44.21875 72.1875 43.675781 72.175781 44 Z M 73.753906 44.980469 C 73.753906 45.09375 73.554688 45.511719 73.449219 45.597656 C 73.40625 45.628906 73.25 45.917969 73.089844 46.253906 C 72.933594 46.574219 72.640625 47.117188 72.4375 47.441406 C 72.164062 47.890625 72.058594 47.992188 72.007812 47.859375 C 71.976562 47.753906 72.058594 47.492188 72.21875 47.222656 C 72.367188 46.960938 72.492188 46.710938 72.492188 46.660156 C 72.492188 46.597656 72.3125 46.441406 72.101562 46.304688 C 71.890625 46.167969 71.671875 46.035156 71.628906 46.003906 C 71.503906 45.917969 71.640625 45.597656 71.808594 45.597656 C 71.882812 45.597656 72.082031 45.667969 72.238281 45.753906 C 72.722656 46.003906 72.871094 45.941406 73.21875 45.386719 C 73.523438 44.898438 73.753906 44.71875 73.753906 44.980469 Z M 75.175781 46.179688 C 76.140625 46.753906 76.363281 46.847656 76.519531 46.742188 C 76.847656 46.542969 76.835938 46.679688 76.488281 47.316406 C 76.3125 47.648438 76.195312 47.953125 76.246094 47.992188 C 76.289062 48.035156 76.761719 47.992188 77.277344 47.878906 C 77.804688 47.773438 78.320312 47.691406 78.4375 47.691406 C 78.835938 47.703125 77.992188 47.984375 77.121094 48.140625 C 76.648438 48.222656 76.238281 48.316406 76.195312 48.359375 C 76.152344 48.390625 76.3125 48.941406 76.53125 49.566406 C 76.753906 50.203125 76.910156 50.746094 76.878906 50.777344 C 76.792969 50.851562 76.5625 50.339844 76.269531 49.433594 C 76.132812 48.984375 75.972656 48.617188 75.910156 48.617188 C 75.859375 48.617188 75.667969 48.878906 75.5 49.191406 C 75.332031 49.503906 75.164062 49.765625 75.109375 49.765625 C 74.933594 49.765625 75.015625 49.359375 75.28125 48.890625 C 75.65625 48.210938 75.59375 48.046875 75.214844 48.703125 L 74.890625 49.246094 L 74.5625 49.058594 C 74.375 48.941406 73.878906 48.652344 73.460938 48.410156 C 73.027344 48.160156 72.660156 47.898438 72.628906 47.828125 C 72.605469 47.753906 72.773438 47.335938 73.027344 46.878906 C 73.691406 45.648438 73.785156 45.492188 73.910156 45.492188 C 73.964844 45.492188 74.542969 45.804688 75.175781 46.179688 Z M 82.960938 50.496094 C 83.652344 50.664062 84.234375 50.808594 84.253906 50.808594 C 84.265625 50.808594 84.273438 50.902344 84.273438 51.015625 C 84.273438 51.246094 84.097656 51.277344 83.601562 51.121094 C 81.949219 50.601562 81.265625 50.359375 81.183594 50.277344 C 80.992188 50.101562 81.6875 50.183594 82.960938 50.496094 Z M 85.601562 50.734375 C 85.84375 50.945312 85.875 51.027344 85.8125 51.363281 C 85.726562 51.800781 85.441406 52.007812 85.054688 51.914062 C 84.484375 51.769531 84.347656 50.984375 84.832031 50.652344 C 85.136719 50.445312 85.265625 50.453125 85.601562 50.734375 Z M 86.0625 53.226562 C 86.441406 54.417969 86.601562 55.082031 86.484375 55.082031 C 86.433594 55.082031 86.210938 54.574219 85.421875 52.601562 C 85.285156 52.257812 85.304688 52.164062 85.527344 52.164062 C 85.683594 52.164062 85.789062 52.382812 86.0625 53.226562 Z M 86.0625 53.226562 "/>
<path style=" stroke:none;fill-rule:nonzero;fill:rgb(0%,0%,0%);fill-opacity:1;" d="M 76.035156 47.171875 C 75.996094 47.335938 76.003906 47.359375 76.132812 47.253906 C 76.300781 47.117188 76.332031 46.953125 76.183594 46.953125 C 76.132812 46.953125 76.070312 47.046875 76.035156 47.171875 Z M 76.035156 47.171875 "/>
<path style=" stroke:none;fill-rule:nonzero;fill:rgb(0%,0%,0%);fill-opacity:1;" d="M 75.648438 48.003906 C 75.648438 48.054688 75.699219 48.078125 75.753906 48.046875 C 75.816406 48.015625 75.859375 47.960938 75.859375 47.929688 C 75.859375 47.910156 75.816406 47.890625 75.753906 47.890625 C 75.699219 47.890625 75.648438 47.941406 75.648438 48.003906 Z M 75.648438 48.003906 "/>
<path style=" stroke:none;fill-rule:nonzero;fill:rgb(0%,0%,0%);fill-opacity:1;" d="M 23.664062 44.292969 C 23.113281 44.667969 22.347656 45.199219 21.9375 45.492188 C 21.535156 45.773438 20.917969 46.210938 20.570312 46.449219 C 20.210938 46.699219 19.0625 47.503906 18 48.253906 C 16.9375 48.996094 15.738281 49.839844 15.320312 50.121094 C 14.910156 50.390625 14.402344 50.757812 14.203125 50.902344 C 14.003906 51.058594 13.457031 51.445312 12.992188 51.769531 C 12.097656 52.371094 10.101562 53.769531 8.953125 54.59375 C 7.734375 55.457031 7.605469 55.542969 6.984375 55.96875 C 5.503906 56.96875 2.578125 59.078125 2.535156 59.171875 C 2.492188 59.285156 3.398438 59.210938 4.101562 59.046875 C 4.304688 59.003906 4.945312 58.878906 5.523438 58.785156 C 8.28125 58.324219 10.660156 57.886719 10.996094 57.792969 C 11.171875 57.753906 11.804688 57.628906 12.414062 57.535156 C 13.027344 57.441406 14.128906 57.242188 14.878906 57.09375 C 15.632812 56.960938 16.644531 56.78125 17.140625 56.699219 C 17.644531 56.617188 18.308594 56.5 18.621094 56.4375 C 19.527344 56.261719 20.136719 56.148438 21.777344 55.855469 C 24.050781 55.449219 24.273438 55.3125 22.863281 55.199219 C 22.261719 55.15625 22.042969 55.09375 22.042969 54.988281 C 22.042969 54.90625 22.777344 54.46875 23.726562 53.976562 C 24.652344 53.5 25.566406 53.019531 25.765625 52.914062 C 26.238281 52.664062 26.417969 52.402344 26.199219 52.269531 C 25.523438 51.863281 23.25 50.121094 23.25 50.007812 C 23.25 49.816406 23.441406 49.796875 25.863281 49.652344 C 27.375 49.558594 28.019531 49.484375 28.058594 49.390625 C 28.132812 49.191406 27.09375 47.304688 25.722656 45.179688 C 25.597656 44.980469 25.335938 44.542969 25.136719 44.210938 C 24.945312 43.886719 24.757812 43.613281 24.714844 43.613281 C 24.683594 43.613281 24.199219 43.917969 23.664062 44.292969 Z M 23.664062 44.292969 "/>
<path style=" stroke:none;fill-rule:nonzero;fill:rgb(0%,0%,0%);fill-opacity:1;" d="M 33.699219 47.535156 C 32.320312 47.734375 31.511719 48.035156 30.40625 48.765625 C 28.542969 49.996094 27.355469 51.902344 27.355469 53.664062 C 27.355469 54.605469 27.523438 54.792969 28.292969 54.667969 C 28.597656 54.613281 28.878906 54.542969 28.914062 54.519531 C 28.945312 54.488281 28.964844 54 28.976562 53.445312 C 28.984375 52.550781 29.019531 52.351562 29.28125 51.820312 C 29.648438 51.089844 30.53125 50.109375 31.257812 49.652344 C 32.53125 48.839844 34.488281 48.492188 35.675781 48.878906 C 37.296875 49.390625 38.042969 50.453125 37.960938 52.082031 C 37.910156 53.007812 37.875 52.988281 38.867188 52.757812 C 39.339844 52.644531 39.402344 52.601562 39.488281 52.269531 C 39.644531 51.683594 39.496094 50.570312 39.179688 49.871094 C 38.738281 48.890625 37.582031 47.941406 36.507812 47.660156 C 35.804688 47.472656 34.519531 47.421875 33.699219 47.535156 Z M 33.699219 47.535156 "/>
<path style=" stroke:none;fill-rule:nonzero;fill:rgb(0%,0%,0%);fill-opacity:1;" d="M 71.710938 58.984375 C 71.503906 59.234375 71.332031 59.523438 71.332031 59.609375 C 71.332031 59.703125 71.460938 59.972656 71.605469 60.210938 C 72.019531 60.859375 72.449219 61.859375 72.585938 62.496094 L 72.710938 63.058594 L 71.851562 63.863281 C 70.851562 64.789062 70.839844 64.652344 72.039062 65.632812 C 72.703125 66.164062 72.808594 66.300781 72.808594 66.582031 C 72.808594 67.0625 72.46875 68.15625 72.027344 69.09375 C 71.816406 69.542969 71.648438 69.972656 71.648438 70.035156 C 71.648438 70.191406 72.511719 71.035156 72.671875 71.035156 C 72.964844 71.035156 73.773438 69.34375 74.070312 68.136719 C 74.132812 67.84375 74.226562 67.574219 74.269531 67.550781 C 74.300781 67.53125 75.089844 68.136719 76.015625 68.898438 C 76.941406 69.660156 77.75 70.261719 77.816406 70.230469 C 77.941406 70.191406 78.382812 69.324219 78.382812 69.117188 C 78.382812 69.03125 78.109375 68.742188 77.785156 68.46875 C 77.445312 68.1875 76.953125 67.773438 76.6875 67.542969 C 76.425781 67.3125 75.828125 66.800781 75.351562 66.40625 L 74.492188 65.695312 L 74.492188 63.570312 L 75.625 62.578125 C 76.246094 62.046875 76.773438 61.578125 76.804688 61.546875 C 76.835938 61.515625 77.203125 61.191406 77.625 60.828125 L 78.382812 60.171875 L 78.097656 59.648438 C 77.941406 59.359375 77.75 59.097656 77.679688 59.078125 C 77.5 59.003906 77.203125 59.203125 76.3125 60.003906 C 74.636719 61.496094 74.152344 61.882812 74.078125 61.796875 C 74.039062 61.746094 73.945312 61.515625 73.871094 61.285156 C 73.648438 60.628906 73.039062 59.347656 72.734375 58.910156 C 72.585938 58.699219 72.375 58.523438 72.28125 58.523438 C 72.175781 58.523438 71.921875 58.734375 71.710938 58.984375 Z M 71.710938 58.984375 "/>
<path style=" stroke:none;fill-rule:nonzero;fill:rgb(0%,0%,0%);fill-opacity:1;" d="M 86.949219 61.347656 C 86.914062 61.410156 86.914062 62.820312 86.957031 64.476562 C 87.03125 67.4375 87.042969 67.488281 87.261719 67.550781 C 87.515625 67.613281 88.777344 67.542969 88.863281 67.457031 C 88.9375 67.386719 88.914062 63.550781 88.839844 63.246094 C 88.726562 62.820312 89.042969 62.976562 89.355469 63.507812 C 89.683594 64.058594 91.882812 67.25 92.0625 67.425781 C 92.175781 67.542969 95.113281 67.53125 95.238281 67.40625 C 95.28125 67.363281 95.28125 65.96875 95.238281 64.308594 L 95.164062 61.285156 L 93.269531 61.285156 L 93.332031 65.769531 L 93.019531 65.40625 C 92.839844 65.207031 92.691406 65.007812 92.691406 64.96875 C 92.691406 64.914062 90.34375 61.484375 90.210938 61.347656 C 90.113281 61.246094 87.011719 61.253906 86.949219 61.347656 Z M 86.949219 61.347656 "/>
<path style=" stroke:none;fill-rule:nonzero;fill:rgb(0%,0%,0%);fill-opacity:1;" d="M 97.488281 63.445312 C 95.765625 66.980469 95.636719 67.238281 95.636719 67.375 C 95.636719 67.449219 95.964844 67.488281 96.691406 67.488281 L 97.730469 67.488281 L 98.214844 66.449219 L 100.023438 66.449219 C 101.023438 66.449219 101.878906 66.4375 101.929688 66.425781 C 101.972656 66.417969 102.140625 66.65625 102.296875 66.949219 L 102.59375 67.488281 L 103.644531 67.488281 C 104.277344 67.488281 104.6875 67.449219 104.6875 67.386719 C 104.6875 67.292969 103.65625 65.28125 102.152344 62.433594 L 101.539062 61.285156 L 100.058594 61.253906 L 98.574219 61.222656 Z M 100.730469 63.800781 C 101.003906 64.351562 101.203125 64.832031 101.171875 64.851562 C 101.152344 64.875 100.679688 64.914062 100.121094 64.945312 C 99.351562 64.976562 99.089844 64.957031 99.058594 64.851562 C 99.027344 64.777344 99.140625 64.425781 99.320312 64.070312 C 99.488281 63.714844 99.636719 63.382812 99.636719 63.339844 C 99.636719 63.183594 99.960938 62.796875 100.097656 62.796875 C 100.171875 62.796875 100.457031 63.246094 100.730469 63.800781 Z M 100.730469 63.800781 "/>
<path style=" stroke:none;fill-rule:nonzero;fill:rgb(0%,0%,0%);fill-opacity:1;" d="M 80.824219 61.472656 C 80.707031 61.597656 80.371094 62.289062 78.582031 66.019531 C 78.246094 66.71875 77.960938 67.363281 77.960938 67.449219 C 77.960938 67.574219 78.152344 67.59375 78.984375 67.574219 L 80.015625 67.542969 L 80.246094 67.042969 L 80.488281 66.550781 L 84.253906 66.550781 L 84.515625 67.042969 L 84.78125 67.542969 L 85.800781 67.542969 C 86.359375 67.550781 86.832031 67.523438 86.863281 67.480469 C 86.894531 67.417969 85.464844 64.5 85.328125 64.363281 C 85.296875 64.332031 84.9375 63.652344 84.527344 62.851562 L 83.78125 61.390625 L 82.359375 61.359375 C 81.265625 61.339844 80.910156 61.371094 80.824219 61.472656 Z M 82.9375 63.871094 C 83.210938 64.414062 83.433594 64.894531 83.433594 64.945312 C 83.433594 65 82.949219 65.039062 82.359375 65.03125 C 81.359375 65.03125 81.277344 65.007812 81.308594 64.832031 C 81.382812 64.433594 82.160156 62.902344 82.296875 62.902344 C 82.371094 62.902344 82.65625 63.339844 82.9375 63.871094 Z M 82.9375 63.871094 "/>
<path style=" stroke:none;fill-rule:nonzero;fill:rgb(0%,0%,0%);fill-opacity:1;" d="M 62.863281 61.535156 C 62.054688 61.609375 61.550781 61.871094 61.296875 62.359375 C 60.960938 63.015625 61.023438 66.363281 61.382812 67.050781 C 61.476562 67.238281 61.738281 67.480469 61.96875 67.59375 C 62.347656 67.78125 62.589844 67.804688 64.894531 67.804688 C 67.695312 67.804688 68.230469 67.71875 68.746094 67.1875 C 69.113281 66.800781 69.261719 65.832031 69.175781 64.207031 C 69.09375 62.640625 69.050781 62.433594 68.734375 62.058594 C 68.25 61.496094 67.988281 61.445312 65.683594 61.464844 C 64.539062 61.472656 63.265625 61.507812 62.863281 61.535156 Z M 67.050781 63.433594 C 67.199219 63.613281 67.230469 63.863281 67.230469 64.675781 C 67.230469 66.082031 67.261719 66.050781 65.191406 66.113281 L 63.558594 66.15625 L 63.296875 65.894531 C 63.042969 65.644531 63.023438 65.5625 63.023438 64.644531 C 63.023438 63.371094 63.085938 63.289062 64.09375 63.195312 C 64.515625 63.164062 65.316406 63.152344 65.863281 63.175781 C 66.714844 63.214844 66.894531 63.246094 67.050781 63.433594 Z M 67.050781 63.433594 "/>
<path style=" stroke:none;fill-rule:nonzero;fill:rgb(0%,0%,0%);fill-opacity:1;" d="M 54.5625 61.746094 C 54.109375 61.796875 54.035156 61.851562 53.828125 62.226562 C 53.226562 63.289062 50.921875 67.792969 50.921875 67.898438 C 50.921875 67.980469 51.089844 68.011719 51.429688 67.992188 C 51.902344 67.960938 51.933594 67.9375 52.183594 67.480469 C 52.648438 66.625 52.46875 66.675781 54.953125 66.667969 L 57.183594 66.65625 L 57.363281 67.050781 C 57.65625 67.6875 57.917969 67.90625 58.394531 67.90625 C 58.929688 67.90625 58.929688 67.8125 58.414062 66.894531 C 58.183594 66.511719 57.730469 65.695312 57.394531 65.09375 C 55.339844 61.402344 55.53125 61.621094 54.5625 61.746094 Z M 55.5625 63.746094 C 55.898438 64.339844 56.269531 65.007812 56.394531 65.238281 C 56.582031 65.5625 56.59375 65.65625 56.476562 65.726562 C 56.308594 65.84375 53.132812 65.851562 53.132812 65.738281 C 53.132812 65.695312 53.320312 65.289062 53.5625 64.832031 C 53.796875 64.371094 54.152344 63.675781 54.351562 63.289062 C 54.550781 62.890625 54.773438 62.589844 54.835938 62.609375 C 54.898438 62.632812 55.226562 63.140625 55.5625 63.746094 Z M 55.5625 63.746094 "/>
<path style=" stroke:none;fill-rule:nonzero;fill:rgb(0%,0%,0%);fill-opacity:1;" d="M 49.703125 61.902344 C 49.660156 62.015625 49.710938 67.648438 49.765625 67.992188 C 49.765625 68.011719 49.964844 68.011719 50.21875 67.992188 L 50.660156 67.960938 L 50.660156 66.136719 C 50.660156 65.132812 50.640625 63.746094 50.605469 63.058594 L 50.554688 61.808594 L 50.15625 61.777344 C 49.882812 61.757812 49.746094 61.789062 49.703125 61.902344 Z M 49.703125 61.902344 "/>
<path style=" stroke:none;fill-rule:nonzero;fill:rgb(0%,0%,0%);fill-opacity:1;" d="M 41.296875 61.933594 C 41.128906 61.953125 39.863281 61.976562 38.507812 61.984375 L 36.035156 62.015625 L 36.035156 65.019531 C 36.035156 66.675781 36.066406 68.074219 36.097656 68.136719 C 36.191406 68.28125 41.664062 68.25 41.84375 68.09375 C 41.925781 68.03125 41.980469 67.835938 41.957031 67.65625 L 41.925781 67.332031 L 39.488281 67.375 C 38.085938 67.394531 37.035156 67.375 37.035156 67.324219 C 37.035156 67.269531 37.023438 66.832031 37.003906 66.34375 L 36.980469 65.457031 L 39.234375 65.425781 C 40.738281 65.40625 41.539062 65.363281 41.632812 65.28125 C 41.714844 65.21875 41.769531 65.019531 41.75 64.839844 L 41.714844 64.519531 L 36.980469 64.519531 L 36.949219 63.707031 C 36.929688 63.265625 36.929688 62.890625 36.949219 62.882812 C 36.972656 62.871094 38.078125 62.839844 39.402344 62.808594 L 41.820312 62.746094 L 41.855469 62.421875 C 41.894531 62.046875 41.726562 61.902344 41.296875 61.933594 Z M 41.296875 61.933594 "/>
<path style=" stroke:none;fill-rule:nonzero;fill:rgb(0%,0%,0%);fill-opacity:1;" d="M 42.347656 61.964844 C 42.230469 62.140625 42.296875 67.8125 42.410156 68.023438 C 42.527344 68.25 43.074219 68.292969 43.199219 68.09375 C 43.242188 68.023438 43.273438 67.488281 43.261719 66.90625 L 43.253906 65.851562 L 45.0625 65.78125 C 47.945312 65.664062 48.082031 65.726562 48.082031 67.074219 C 48.082031 67.9375 48.175781 68.117188 48.609375 68.117188 C 49.125 68.117188 49.15625 68.023438 49.09375 66.863281 C 49.050781 66.269531 48.996094 65.757812 48.945312 65.726562 C 48.609375 65.46875 48.585938 65.300781 48.871094 64.96875 C 49.144531 64.644531 49.15625 64.589844 49.113281 63.683594 C 49.070312 62.621094 48.914062 62.289062 48.34375 62.027344 C 48.050781 61.890625 47.535156 61.859375 45.210938 61.859375 C 43.453125 61.859375 42.390625 61.902344 42.347656 61.964844 Z M 47.660156 62.796875 C 48.019531 62.945312 48.082031 63.089844 48.113281 63.832031 C 48.132812 64.257812 48.09375 64.402344 47.890625 64.589844 C 47.660156 64.820312 47.609375 64.832031 45.472656 64.832031 L 43.292969 64.832031 L 43.261719 63.902344 C 43.242188 63.394531 43.253906 62.921875 43.273438 62.859375 C 43.347656 62.695312 47.273438 62.640625 47.660156 62.796875 Z M 47.660156 62.796875 "/>
<path style=" stroke:none;fill-rule:nonzero;fill:rgb(0%,0%,0%);fill-opacity:1;" d="M 34.445312 62.109375 C 34.320312 62.203125 34.308594 62.671875 34.371094 65.25 L 34.457031 68.273438 L 34.910156 68.304688 L 35.351562 68.335938 L 35.351562 65.21875 L 35.339844 62.089844 L 34.972656 62.046875 C 34.761719 62.027344 34.53125 62.058594 34.445312 62.109375 Z M 34.445312 62.109375 "/>
<path style=" stroke:none;fill-rule:nonzero;fill:rgb(0%,0%,0%);fill-opacity:1;" d="M 32.710938 62.140625 C 32.699219 62.183594 32.710938 63.363281 32.722656 64.75 C 32.730469 66.144531 32.722656 67.28125 32.6875 67.28125 C 32.65625 67.28125 31.480469 66.136719 30.082031 64.726562 L 27.523438 62.171875 L 26.070312 62.171875 L 26.09375 65.113281 C 26.113281 66.738281 26.144531 68.148438 26.167969 68.242188 C 26.230469 68.480469 26.988281 68.511719 27.070312 68.28125 C 27.101562 68.199219 27.101562 67.019531 27.070312 65.675781 C 27.039062 64.132812 27.058594 63.214844 27.113281 63.214844 C 27.175781 63.214844 28.34375 64.363281 29.722656 65.769531 L 32.238281 68.324219 L 33.667969 68.324219 L 33.648438 65.21875 L 33.617188 62.121094 L 33.171875 62.089844 C 32.921875 62.070312 32.710938 62.089844 32.710938 62.140625 Z M 32.710938 62.140625 "/>
<path style=" stroke:none;fill-rule:nonzero;fill:rgb(0%,0%,0%);fill-opacity:1;" d="M 21.253906 62.265625 L 19.832031 62.328125 L 19.875 65.351562 C 19.894531 67.011719 19.9375 68.417969 19.957031 68.460938 C 20.011719 68.542969 23.683594 68.53125 25.074219 68.449219 L 25.777344 68.40625 L 25.777344 67.5625 L 23.441406 67.613281 C 22.148438 67.648438 21.03125 67.648438 20.96875 67.625 C 20.875 67.59375 20.832031 67.300781 20.832031 66.667969 L 20.832031 65.75 L 22.496094 65.6875 C 23.398438 65.644531 24.472656 65.613281 24.863281 65.613281 L 25.578125 65.613281 L 25.546875 65.21875 L 25.515625 64.832031 L 23.179688 64.800781 L 20.832031 64.777344 L 20.820312 64.175781 C 20.820312 63.851562 20.800781 63.496094 20.78125 63.394531 C 20.757812 63.289062 20.800781 63.183594 20.863281 63.164062 C 20.9375 63.132812 22.03125 63.101562 23.304688 63.070312 L 25.621094 63.027344 L 25.621094 62.226562 L 24.144531 62.214844 C 23.335938 62.214844 22.03125 62.234375 21.253906 62.265625 Z M 21.253906 62.265625 "/>
<path style=" stroke:none;fill-rule:nonzero;fill:rgb(0%,0%,0%);fill-opacity:1;" d="M 14.152344 62.382812 C 12.867188 62.496094 12.5625 62.632812 12.238281 63.265625 C 12.015625 63.675781 11.929688 65.601562 12.089844 66.792969 C 12.214844 67.8125 12.4375 68.210938 12.992188 68.40625 C 13.476562 68.585938 15.59375 68.65625 16.972656 68.542969 C 18.9375 68.375 19.222656 68.117188 19.265625 66.394531 L 19.296875 65.351562 L 17.402344 65.351562 C 16.371094 65.351562 15.457031 65.375 15.394531 65.394531 C 15.320312 65.414062 15.253906 65.582031 15.253906 65.78125 C 15.253906 66.238281 15.445312 66.28125 17.054688 66.1875 L 18.308594 66.113281 L 18.308594 66.625 C 18.308594 67.28125 18.148438 67.488281 17.558594 67.605469 C 16.761719 67.75 13.816406 67.71875 13.488281 67.550781 C 13.035156 67.324219 12.898438 66.675781 12.972656 65.113281 C 13.066406 63.246094 12.992188 63.308594 15.382812 63.238281 C 17.96875 63.164062 18.054688 63.195312 18.242188 64.070312 C 18.308594 64.332031 18.359375 64.363281 18.726562 64.363281 C 18.949219 64.363281 19.167969 64.308594 19.203125 64.257812 C 19.242188 64.195312 19.210938 63.894531 19.148438 63.582031 C 18.980469 62.796875 18.613281 62.515625 17.558594 62.382812 C 16.707031 62.277344 15.445312 62.277344 14.152344 62.382812 Z M 14.152344 62.382812 "/>
<path style=" stroke:none;fill-rule:nonzero;fill:rgb(0%,0%,0%);fill-opacity:1;" d="M 10.457031 62.539062 C 10.425781 62.621094 10.417969 63.789062 10.4375 65.144531 C 10.457031 66.75 10.4375 67.59375 10.363281 67.574219 C 10.3125 67.550781 9.152344 66.40625 7.796875 65.007812 L 5.335938 62.476562 L 3.945312 62.539062 L 3.945312 68.6875 L 4.890625 68.6875 L 4.859375 66.101562 C 4.839844 64.6875 4.851562 63.527344 4.890625 63.527344 C 4.957031 63.527344 7.132812 65.726562 9.53125 68.1875 C 10.039062 68.710938 10.089844 68.742188 10.59375 68.742188 C 11.542969 68.742188 11.480469 68.90625 11.449219 66.300781 C 11.4375 65.039062 11.40625 63.632812 11.382812 63.183594 L 11.34375 62.382812 L 10.933594 62.382812 C 10.660156 62.382812 10.488281 62.433594 10.457031 62.539062 Z M 10.457031 62.539062 "/>
<path style=" stroke:none;fill-rule:nonzero;fill:rgb(0%,0%,0%);fill-opacity:1;" d="M 2.316406 62.640625 C 2.210938 62.765625 2.1875 63.175781 2.242188 64.5 C 2.28125 65.425781 2.316406 66.761719 2.316406 67.457031 L 2.316406 68.742188 L 3.28125 68.742188 L 3.242188 65.632812 L 3.199219 62.539062 L 2.832031 62.507812 C 2.589844 62.484375 2.410156 62.539062 2.316406 62.640625 Z M 2.316406 62.640625 "/>
<path style=" stroke:none;fill-rule:nonzero;fill:rgb(0%,0%,0%);fill-opacity:1;" d="M 85.539062 72.027344 C 85.539062 72.214844 85.589844 72.285156 85.75 72.285156 C 86.011719 72.285156 86.148438 71.984375 85.949219 71.859375 C 85.683594 71.703125 85.539062 71.753906 85.539062 72.027344 Z M 85.539062 72.027344 "/>
<path style=" stroke:none;fill-rule:nonzero;fill:rgb(0%,0%,0%);fill-opacity:1;" d="M 45.421875 72.496094 C 45.230469 72.722656 45.1875 72.910156 45.335938 72.910156 C 45.429688 72.910156 45.976562 72.433594 45.976562 72.339844 C 45.976562 72.203125 45.589844 72.308594 45.421875 72.496094 Z M 45.421875 72.496094 "/>
<path style=" stroke:none;fill-rule:nonzero;fill:rgb(0%,0%,0%);fill-opacity:1;" d="M 29.492188 72.566406 C 29.207031 72.621094 29.175781 72.785156 29.4375 72.878906 C 29.734375 72.996094 29.773438 73.128906 29.773438 74.234375 L 29.773438 75.289062 L 29.449219 75.402344 C 28.976562 75.570312 29.070312 75.882812 29.597656 75.871094 C 29.808594 75.863281 30.195312 75.851562 30.457031 75.839844 C 30.996094 75.832031 31.121094 75.582031 30.679688 75.414062 C 30.34375 75.289062 30.257812 74.859375 30.332031 73.703125 C 30.355469 73.222656 30.355469 72.777344 30.3125 72.722656 C 30.226562 72.589844 29.796875 72.503906 29.492188 72.566406 Z M 29.492188 72.566406 "/>
<path style=" stroke:none;fill-rule:nonzero;fill:rgb(0%,0%,0%);fill-opacity:1;" d="M 100.5 72.941406 C 100.203125 73.246094 100.164062 73.347656 100.164062 73.871094 C 100.164062 74.390625 100.203125 74.496094 100.5 74.789062 C 100.8125 75.101562 100.867188 75.121094 101.363281 75.046875 C 102.246094 74.933594 102.328125 74.621094 101.46875 74.671875 C 100.917969 74.695312 100.6875 74.558594 100.6875 74.203125 C 100.6875 73.964844 100.730469 73.953125 101.308594 73.953125 C 102.015625 73.953125 102.222656 73.796875 102.117188 73.371094 C 102.023438 73.003906 101.8125 72.816406 101.402344 72.691406 C 100.898438 72.558594 100.867188 72.566406 100.5 72.941406 Z M 101.476562 73.378906 C 101.476562 73.546875 101.394531 73.597656 101.089844 73.621094 C 100.667969 73.652344 100.5625 73.496094 100.8125 73.246094 C 101.023438 73.035156 101.476562 73.128906 101.476562 73.378906 Z M 101.476562 73.378906 "/>
<path style=" stroke:none;fill-rule:nonzero;fill:rgb(0%,0%,0%);fill-opacity:1;" d="M 80.152344 72.871094 C 79.8125 73.046875 79.675781 73.421875 79.847656 73.726562 C 79.898438 73.828125 80.191406 74.027344 80.488281 74.152344 C 80.769531 74.277344 81.011719 74.414062 81.011719 74.453125 C 81.003906 74.695312 80.804688 74.796875 80.371094 74.765625 C 80.015625 74.746094 79.910156 74.765625 79.878906 74.914062 C 79.855469 75.039062 79.941406 75.109375 80.214844 75.152344 C 80.707031 75.246094 81.152344 75.144531 81.425781 74.851562 C 81.835938 74.421875 81.507812 73.871094 80.75 73.683594 C 80.160156 73.535156 80.328125 73.121094 80.992188 73.121094 C 81.214844 73.121094 81.328125 73.066406 81.328125 72.972656 C 81.328125 72.671875 80.625 72.609375 80.152344 72.871094 Z M 80.152344 72.871094 "/>
<path style=" stroke:none;fill-rule:nonzero;fill:rgb(0%,0%,0%);fill-opacity:1;" d="M 85.148438 72.777344 C 84.917969 72.859375 85 73.097656 85.273438 73.160156 C 85.515625 73.222656 85.539062 73.265625 85.539062 73.890625 C 85.539062 74.515625 85.515625 74.558594 85.273438 74.621094 C 85.105469 74.664062 85.011719 74.757812 85.011719 74.902344 C 85.011719 75.089844 85.0625 75.109375 85.820312 75.082031 C 86.503906 75.046875 86.640625 75.019531 86.675781 74.859375 C 86.695312 74.757812 86.640625 74.683594 86.558594 74.683594 C 86.273438 74.683594 86.117188 74.351562 86.105469 73.671875 C 86.09375 73.308594 86.023438 72.941406 85.957031 72.859375 C 85.832031 72.703125 85.410156 72.660156 85.148438 72.777344 Z M 85.148438 72.777344 "/>
<path style=" stroke:none;fill-rule:nonzero;fill:rgb(0%,0%,0%);fill-opacity:1;" d="M 90.082031 72.878906 C 89.988281 73.035156 90.09375 74.957031 90.1875 75.058594 C 90.230469 75.101562 90.34375 75.070312 90.441406 74.984375 C 90.578125 74.882812 90.597656 74.703125 90.566406 74.195312 C 90.523438 73.609375 90.554688 73.507812 90.765625 73.308594 L 91.007812 73.078125 L 91.324219 73.308594 C 91.882812 73.726562 92.15625 73.515625 91.789062 72.964844 C 91.628906 72.722656 91.554688 72.714844 90.882812 72.734375 C 90.449219 72.746094 90.125 72.808594 90.082031 72.878906 Z M 90.082031 72.878906 "/>
<path style=" stroke:none;fill-rule:nonzero;fill:rgb(0%,0%,0%);fill-opacity:1;" d="M 94.859375 72.785156 C 94.839844 72.828125 94.871094 73.003906 94.953125 73.171875 C 95.027344 73.347656 95.195312 73.765625 95.332031 74.109375 C 95.628906 74.894531 95.710938 74.996094 96.007812 74.996094 C 96.269531 74.996094 96.585938 74.601562 96.585938 74.277344 C 96.585938 74.164062 96.628906 74.046875 96.667969 74.015625 C 96.796875 73.945312 97.058594 72.816406 96.964844 72.734375 C 96.816406 72.589844 96.542969 72.878906 96.417969 73.339844 C 96.332031 73.597656 96.183594 73.890625 96.078125 73.984375 C 95.890625 74.152344 95.871094 74.132812 95.585938 73.433594 C 95.375 72.910156 95.238281 72.703125 95.101562 72.703125 C 94.996094 72.703125 94.890625 72.746094 94.859375 72.785156 Z M 94.859375 72.785156 "/>
<path style=" stroke:none;fill-rule:nonzero;fill:rgb(0%,0%,0%);fill-opacity:1;" d="M 69.902344 73.160156 C 69.535156 73.527344 69.523438 73.570312 69.566406 74.132812 C 69.628906 74.894531 69.957031 75.207031 70.660156 75.207031 C 71.175781 75.207031 71.585938 75.046875 71.492188 74.882812 C 71.449219 74.828125 71.195312 74.789062 70.921875 74.789062 C 70.542969 74.789062 70.367188 74.734375 70.21875 74.570312 C 69.933594 74.257812 70.144531 74.152344 71.101562 74.121094 C 71.355469 74.109375 71.542969 73.902344 71.542969 73.621094 C 71.542969 73.316406 71.089844 72.910156 70.683594 72.839844 C 70.335938 72.785156 70.25 72.816406 69.902344 73.160156 Z M 70.957031 73.453125 C 70.988281 73.589844 70.976562 73.726562 70.933594 73.765625 C 70.808594 73.890625 70.175781 73.746094 70.175781 73.597656 C 70.175781 73.203125 70.851562 73.078125 70.957031 73.453125 Z M 70.957031 73.453125 "/>
<path style=" stroke:none;fill-rule:nonzero;fill:rgb(0%,0%,0%);fill-opacity:1;" d="M 59.949219 73.066406 C 59.53125 73.296875 59.277344 74.046875 59.433594 74.578125 C 59.570312 75.046875 60.023438 75.457031 60.308594 75.371094 C 60.96875 75.164062 60.949219 75.164062 60.886719 75.402344 C 60.8125 75.707031 60.96875 76.144531 61.171875 76.144531 C 61.382812 76.144531 61.414062 75.851562 61.390625 74.371094 L 61.371094 73.066406 L 61.066406 73.003906 C 60.558594 72.890625 60.246094 72.910156 59.949219 73.066406 Z M 60.832031 74.007812 C 60.769531 74.859375 60.246094 75.195312 59.929688 74.570312 C 59.75 74.214844 59.792969 74.015625 60.117188 73.664062 C 60.253906 73.507812 60.421875 73.433594 60.601562 73.453125 C 60.855469 73.484375 60.867188 73.515625 60.832031 74.007812 Z M 60.832031 74.007812 "/>
<path style=" stroke:none;fill-rule:nonzero;fill:rgb(0%,0%,0%);fill-opacity:1;" d="M 64.632812 72.996094 C 64.472656 73.089844 64.578125 74.828125 64.769531 75.082031 C 64.875 75.226562 65.042969 75.257812 65.609375 75.234375 C 65.988281 75.226562 66.324219 75.195312 66.335938 75.183594 C 66.398438 75.121094 66.472656 73.183594 66.421875 73.046875 C 66.355469 72.878906 66.117188 72.871094 66.011719 73.027344 C 65.96875 73.097656 65.949219 73.390625 65.957031 73.695312 C 65.96875 74.101562 65.914062 74.296875 65.746094 74.507812 C 65.304688 75.082031 65.019531 74.726562 65.019531 73.578125 C 65.019531 72.910156 64.949219 72.796875 64.632812 72.996094 Z M 64.632812 72.996094 "/>
<path style=" stroke:none;fill-rule:nonzero;fill:rgb(0%,0%,0%);fill-opacity:1;" d="M 49.996094 73.089844 C 49.871094 73.121094 49.710938 73.222656 49.660156 73.339844 C 49.554688 73.515625 49.585938 73.535156 50.007812 73.535156 C 50.25 73.535156 50.511719 73.589844 50.574219 73.652344 C 50.773438 73.851562 50.605469 74.058594 50.238281 74.058594 C 49.785156 74.058594 49.34375 74.414062 49.34375 74.777344 C 49.34375 75.246094 49.574219 75.457031 50.089844 75.457031 C 50.734375 75.445312 51.058594 75.394531 51.21875 75.277344 C 51.480469 75.082031 51.3125 73.507812 50.996094 73.246094 C 50.839844 73.109375 50.324219 73.035156 49.996094 73.089844 Z M 50.710938 74.746094 C 50.710938 74.828125 50.585938 74.945312 50.4375 74.996094 C 50.101562 75.132812 49.871094 74.976562 49.945312 74.683594 C 50.039062 74.328125 50.710938 74.382812 50.710938 74.746094 Z M 50.710938 74.746094 "/>
<path style=" stroke:none;fill-rule:nonzero;fill:rgb(0%,0%,0%);fill-opacity:1;" d="M 4.207031 73.222656 C 3.789062 73.265625 3.628906 73.316406 3.628906 73.433594 C 3.628906 73.535156 3.757812 73.597656 3.964844 73.621094 C 4.367188 73.664062 4.449219 73.851562 4.410156 74.558594 C 4.398438 74.828125 4.386719 75.300781 4.398438 75.589844 C 4.417969 76.058594 4.449219 76.144531 4.617188 76.144531 C 4.882812 76.144531 4.925781 75.964844 4.890625 74.894531 C 4.859375 73.777344 4.890625 73.640625 5.199219 73.640625 C 5.511719 73.640625 5.753906 73.378906 5.554688 73.265625 C 5.398438 73.160156 5.007812 73.152344 4.207031 73.222656 Z M 4.207031 73.222656 "/>
<path style=" stroke:none;fill-rule:nonzero;fill:rgb(0%,0%,0%);fill-opacity:1;" d="M 44.632812 73.246094 C 44.429688 73.441406 44.484375 73.621094 44.746094 73.664062 C 44.957031 73.695312 44.976562 73.746094 44.976562 74.371094 C 44.976562 74.996094 44.957031 75.039062 44.714844 75.101562 C 44.355469 75.183594 44.316406 75.488281 44.640625 75.570312 C 44.90625 75.644531 46.074219 75.570312 46.15625 75.476562 C 46.273438 75.363281 46.082031 75.101562 45.871094 75.101562 C 45.652344 75.101562 45.621094 74.957031 45.652344 73.953125 C 45.664062 73.695312 45.628906 73.433594 45.589844 73.371094 C 45.460938 73.191406 44.777344 73.097656 44.632812 73.246094 Z M 44.632812 73.246094 "/>
<path style=" stroke:none;fill-rule:nonzero;fill:rgb(0%,0%,0%);fill-opacity:1;" d="M 39.507812 73.558594 C 39.253906 73.859375 39.234375 73.945312 39.253906 74.777344 C 39.265625 75.269531 39.234375 75.800781 39.191406 75.957031 C 39.128906 76.207031 39.160156 76.269531 39.476562 76.457031 C 39.917969 76.71875 40.464844 76.726562 40.875 76.457031 C 41.632812 75.964844 41.359375 75.371094 40.316406 75.214844 C 39.6875 75.132812 39.632812 74.933594 40.234375 74.851562 C 40.78125 74.765625 40.886719 74.664062 41.011719 74.109375 C 41.066406 73.882812 41.148438 73.621094 41.179688 73.527344 C 41.242188 73.390625 41.167969 73.339844 40.855469 73.296875 C 40.042969 73.160156 39.800781 73.203125 39.507812 73.558594 Z M 40.453125 74.058594 C 40.453125 74.390625 40.433594 74.421875 40.136719 74.421875 C 39.894531 74.421875 39.8125 74.371094 39.792969 74.203125 C 39.75 73.933594 40.042969 73.621094 40.285156 73.664062 C 40.402344 73.683594 40.453125 73.808594 40.453125 74.058594 Z M 40.652344 75.820312 C 40.832031 76.019531 40.832031 76.027344 40.621094 76.132812 C 40.085938 76.425781 39.464844 76.144531 39.832031 75.777344 C 40.054688 75.558594 40.433594 75.582031 40.652344 75.820312 Z M 40.652344 75.820312 "/>
<path style=" stroke:none;fill-rule:nonzero;fill:rgb(0%,0%,0%);fill-opacity:1;" d="M 34.542969 73.546875 C 34.195312 73.765625 34.152344 73.839844 34.035156 74.496094 C 33.929688 75.121094 34.425781 75.832031 34.960938 75.832031 C 35.878906 75.832031 36.457031 74.714844 35.984375 73.871094 C 35.8125 73.570312 35.65625 73.433594 35.425781 73.390625 C 34.972656 73.296875 34.910156 73.308594 34.542969 73.546875 Z M 35.363281 73.882812 C 35.570312 74.046875 35.699219 74.527344 35.613281 74.902344 C 35.539062 75.234375 35.121094 75.414062 34.835938 75.234375 C 34.46875 75.007812 34.5 74.171875 34.898438 73.871094 C 35.109375 73.714844 35.152344 73.714844 35.363281 73.882812 Z M 35.363281 73.882812 "/>
<path style=" stroke:none;fill-rule:nonzero;fill:rgb(0%,0%,0%);fill-opacity:1;" d="M 24.410156 73.671875 C 24.0625 73.839844 23.882812 74.214844 23.882812 74.765625 C 23.882812 75.707031 24.515625 76.214844 25.28125 75.894531 C 25.746094 75.707031 25.988281 75.269531 25.988281 74.632812 C 25.988281 73.765625 25.1875 73.277344 24.410156 73.671875 Z M 25.28125 74.195312 C 25.566406 74.390625 25.554688 75.089844 25.261719 75.332031 C 24.914062 75.601562 24.660156 75.570312 24.515625 75.207031 C 24.378906 74.894531 24.441406 74.433594 24.640625 74.195312 C 24.777344 74.027344 25.050781 74.027344 25.28125 74.195312 Z M 25.28125 74.195312 "/>
<path style=" stroke:none;fill-rule:nonzero;fill:rgb(0%,0%,0%);fill-opacity:1;" d="M 14.644531 73.777344 C 14.023438 73.964844 13.699219 74.632812 13.886719 75.308594 C 14.066406 75.964844 14.8125 76.332031 15.371094 76.039062 C 15.75 75.832031 15.613281 75.621094 15.097656 75.621094 C 14.570312 75.621094 14.414062 75.457031 14.414062 74.902344 C 14.414062 74.527344 14.835938 74.164062 15.265625 74.164062 C 15.644531 74.164062 15.699219 73.808594 15.339844 73.703125 C 15.054688 73.632812 15.097656 73.632812 14.644531 73.777344 Z M 14.644531 73.777344 "/>
<path style=" stroke:none;fill-rule:nonzero;fill:rgb(0%,0%,0%);fill-opacity:1;" d="M 18.980469 73.734375 C 18.960938 73.757812 18.9375 74.265625 18.9375 74.859375 C 18.9375 75.738281 18.96875 75.957031 19.097656 76.007812 C 19.347656 76.101562 19.410156 75.976562 19.433594 75.246094 C 19.464844 74.402344 19.589844 74.140625 19.96875 74.183594 C 20.242188 74.214844 20.253906 74.234375 20.285156 75.027344 C 20.316406 75.863281 20.453125 76.101562 20.757812 75.839844 C 20.9375 75.707031 20.789062 74.226562 20.558594 73.882812 C 20.433594 73.671875 20.328125 73.652344 19.71875 73.671875 C 19.339844 73.683594 19.011719 73.714844 18.980469 73.734375 Z M 18.980469 73.734375 "/>
<path style=" stroke:none;fill-rule:nonzero;fill:rgb(0%,0%,0%);fill-opacity:1;" d="M 9.300781 73.859375 C 8.953125 74.039062 8.734375 74.507812 8.734375 75.070312 C 8.742188 75.613281 8.835938 75.800781 9.28125 76.082031 C 9.554688 76.257812 9.796875 76.257812 10.449219 76.082031 C 10.742188 75.996094 10.5625 75.863281 10.058594 75.789062 C 9.523438 75.707031 9.109375 75.363281 9.363281 75.207031 C 9.449219 75.144531 9.691406 75.101562 9.890625 75.089844 C 10.394531 75.058594 10.449219 75.046875 10.585938 74.964844 C 10.867188 74.796875 10.480469 73.851562 10.121094 73.851562 C 10.027344 73.851562 9.847656 73.828125 9.730469 73.796875 C 9.617188 73.777344 9.425781 73.808594 9.300781 73.859375 Z M 9.984375 74.265625 C 10.039062 74.265625 10.070312 74.371094 10.058594 74.496094 C 10.046875 74.746094 9.722656 74.859375 9.40625 74.746094 C 9.269531 74.695312 9.28125 74.652344 9.425781 74.421875 C 9.53125 74.265625 9.667969 74.171875 9.753906 74.203125 C 9.835938 74.246094 9.941406 74.265625 9.984375 74.265625 Z M 9.984375 74.265625 "/>
</g>
</svg>
